<svg width="35" height="35" viewBox="0 0 35 35" fill="none" xmlns="http://www.w3.org/2000/svg">
<g clip-path="url(#clip0_494_631)">
<path d="M28.875 0H6.125C2.74226 0 0 2.74226 0 6.125V28.875C0 32.2577 2.74226 35 6.125 35H28.875C32.2577 35 35 32.2577 35 28.875V6.125C35 2.74226 32.2577 0 28.875 0Z" fill="url(#paint0_linear_494_631)"/>
<path fill-rule="evenodd" clip-rule="evenodd" d="M9.09134 9.46951L7.15287 12.0786C6.90911 12.3826 5.37687 14.356 5.21791 14.7047L6.43527 14.8229C6.01912 15.1837 5.44254 15.4412 5.02583 15.8064L4.93354 15.8991C5.30416 15.87 6.15557 15.7361 6.44858 15.8125C5.97272 15.9999 5.42514 16.2356 4.96303 16.4459C4.58387 16.6184 3.78847 16.8647 3.5 17.1003L6.03825 17.0995L4.90728 17.4717C5.28414 17.6102 5.69551 17.6275 6.06249 17.7726C6.2507 17.8467 6.14694 17.8006 6.22759 17.8636L4.80736 17.9134C5.13395 18.2074 11.075 20.39 12.8882 21.1359C13.1219 21.232 15.1407 22.7705 17.0185 22.7498C18.6391 22.7319 21.5971 20.9726 21.9797 20.8134C24.0123 19.9677 24.1555 19.9665 26.2098 19.1707C26.7328 18.9682 27.2387 18.7623 27.7515 18.5643C28.1544 18.4089 28.9331 18.1439 29.2834 17.9484C28.9727 17.8013 28.2888 17.8915 27.8729 17.8557L28.0312 17.778C28.0666 17.7655 28.1571 17.7447 28.1976 17.7348L29.1742 17.4941C28.9785 17.321 28.3317 17.2174 28.0612 17.1098L30.625 17.0992C30.1838 16.7994 28.2121 16.0551 27.6549 15.7973L29.1871 15.8943L28.4328 15.3527C28.1999 15.202 27.8706 15.0365 27.683 14.8226C27.8866 14.7965 28.0991 14.7843 28.3069 14.7635L28.8919 14.6677C28.7509 14.4342 28.5793 14.2207 28.413 14.0062L26.0173 10.8062C25.7092 10.3899 25.2976 9.92968 25.044 9.46951C25.4009 8.41864 25.8965 7.58401 26.1031 6.40313C26.2697 5.45074 26.391 3.72086 25.0672 3.50101C25.0798 3.52231 20.0238 6.55129 20.045 6.54059C25.3372 3.86287 25.1577 3.69426 25.1699 3.7136C25.402 4.08048 25.58 4.22931 25.6288 4.7779C25.7394 6.01938 24.5925 8.24714 24.0351 8.65747C23.2815 7.93382 21.6576 6.89689 20.3883 6.82285C19.9321 6.79606 19.6495 6.79104 19.523 7.10848C19.3117 7.6395 19.1172 8.17857 18.9106 8.72579C18.7226 9.22407 18.0956 11.0121 17.8464 11.4679C17.7566 11.6321 17.7051 11.6248 17.6047 11.7862C16.9277 12.8758 17.8419 14.3107 18.3795 14.9228C18.8338 14.3967 18.8398 14.0053 19.7909 13.6782C21.171 13.2034 22.7294 14.0634 23.835 14.7136C24.1559 14.9026 25.1825 15.604 25.3541 15.8288C25.2142 16.0363 23.4657 17.2425 23.1405 17.4731C22.939 17.6157 22.77 17.7425 22.5835 17.8859C22.2463 18.1451 21.1563 19.0076 20.8736 19.0872L20.7766 18.9633L20.9396 18.791C21.3481 18.4842 21.9171 18.2187 22.255 17.859C21.7458 17.9931 21.1501 18.3862 20.6497 18.4981C20.7608 18.3902 20.8973 18.2331 21.0227 18.1196C21.1588 17.9959 21.2848 17.9484 21.4008 17.7677C21.0707 17.9551 20.6821 18.1717 20.334 18.3387C20.1932 18.2575 19.9601 18.0003 19.8233 17.8438C19.6585 17.6552 19.4835 17.5013 19.3322 17.3164C19.1496 17.0936 19.0504 17.008 18.8406 16.789C18.6379 16.5773 18.5765 16.4661 18.3281 16.249L17.509 18.7807C18.6517 19.0145 19.097 20.621 18.2019 21.4073C16.7515 22.6808 14.704 20.965 15.7476 19.4046C15.9894 19.0429 16.2029 18.9841 16.5879 18.7559L15.8097 16.2438L14.8053 17.2673C14.5735 17.5283 14.0402 18.1957 13.8017 18.3377L12.7067 17.7628C12.7445 17.7904 12.9788 18.0449 13.0665 18.1155C13.2272 18.2451 13.3275 18.3719 13.4746 18.4945C13.0078 18.4361 12.3356 17.9746 11.8533 17.851C12.0706 18.0315 12.3337 18.2122 12.5842 18.3842L13.1585 18.7807C13.2937 18.8779 13.2644 18.8366 13.3289 18.9578L13.2352 19.1C13.0121 19.0056 12.3519 18.4796 12.1067 18.3011L9.86125 16.6687C9.53365 16.4391 9.00996 16.1094 8.76733 15.8288C8.90636 15.6282 8.94346 15.6644 9.11977 15.5241C9.2428 15.4263 9.36679 15.3287 9.49603 15.2372C9.64241 15.1337 9.74741 15.0655 9.89126 14.9663C11.203 14.0634 13.7644 12.7207 15.1637 14.1892L15.7563 14.9188C16.4104 14.2874 17.1197 12.6817 16.4979 11.7693C16.0563 11.1212 14.9765 8.05941 14.6118 7.1059C14.4896 6.78576 14.1856 6.8021 13.8011 6.81963C12.4313 6.88159 10.9757 7.92603 10.0997 8.65389C9.52507 8.2161 7.89296 5.02331 8.98765 3.62149C20.0924 9.80858 9.04461 3.55504 9.07349 3.5C7.86258 3.71159 7.82869 5.20542 8.03954 6.39678C8.13841 6.95594 8.30946 7.46062 8.48547 7.97624C8.66324 8.49643 8.93445 8.9943 9.09134 9.46951Z" fill="white"/>
<path fill-rule="evenodd" clip-rule="evenodd" d="M19.8656 14.9295C18.736 15.3253 19.3105 16.9029 20.3856 16.5823C21.5112 16.2467 20.9428 14.552 19.8656 14.9295Z" fill="white"/>
<path fill-rule="evenodd" clip-rule="evenodd" d="M13.7331 14.9234C12.6854 15.2316 13.0765 16.9288 14.2578 16.5773C15.311 16.264 14.9376 14.5692 13.7331 14.9234Z" fill="white"/>
<path d="M9.2124 28.8748V25.0566H11.5167V25.4668H9.67475V26.7569H11.3975V27.1671H9.67475V28.4646H11.5466V28.8748H9.2124ZM13.9311 27.0328V27.4429H12.2606V27.0328H13.9311ZM15.1453 27.1521V28.8748H14.7052V26.0112H15.1303V26.4586H15.1676C15.2347 26.3131 15.3366 26.1963 15.4734 26.1081C15.6101 26.0186 15.7865 25.9739 16.0028 25.9739C16.1967 25.9739 16.3664 26.0136 16.5118 26.0932C16.6573 26.1715 16.7703 26.2908 16.8511 26.4511C16.9319 26.6102 16.9723 26.8115 16.9723 27.0552V28.8748H16.5323V27.085C16.5323 26.86 16.4739 26.6848 16.357 26.5593C16.2402 26.4325 16.0799 26.3691 15.8761 26.3691C15.7356 26.3691 15.6101 26.3996 15.4995 26.4605C15.3901 26.5214 15.3037 26.6102 15.2403 26.7271C15.1769 26.8439 15.1453 26.9856 15.1453 27.1521ZM18.9396 28.9345C18.6811 28.9345 18.4543 28.873 18.2591 28.7498C18.0653 28.6268 17.9137 28.4547 17.8043 28.2334C17.6961 28.0122 17.6421 27.7537 17.6421 27.4579C17.6421 27.1596 17.6961 26.8992 17.8043 26.6767C17.9137 26.4543 18.0653 26.2815 18.2591 26.1584C18.4543 26.0354 18.6811 25.9739 18.9396 25.9739C19.1982 25.9739 19.4244 26.0354 19.6183 26.1584C19.8134 26.2815 19.965 26.4543 20.0732 26.6767C20.1825 26.8992 20.2372 27.1596 20.2372 27.4579C20.2372 27.7537 20.1825 28.0122 20.0732 28.2334C19.965 28.4547 19.8134 28.6268 19.6183 28.7498C19.4244 28.873 19.1982 28.9345 18.9396 28.9345ZM18.9396 28.5392C19.136 28.5392 19.2976 28.4888 19.4244 28.3882C19.5511 28.2875 19.6449 28.1552 19.7059 27.9911C19.7668 27.8271 19.7973 27.6493 19.7973 27.4579C19.7973 27.2665 19.7668 27.0881 19.7059 26.9228C19.6449 26.7576 19.5511 26.6239 19.4244 26.522C19.2976 26.4201 19.136 26.3691 18.9396 26.3691C18.7433 26.3691 18.5817 26.4201 18.4549 26.522C18.3282 26.6239 18.2343 26.7576 18.1734 26.9228C18.1125 27.0881 18.082 27.2665 18.082 27.4579C18.082 27.6493 18.1125 27.8271 18.1734 27.9911C18.2343 28.1552 18.3282 28.2875 18.4549 28.3882C18.5817 28.4888 18.7433 28.5392 18.9396 28.5392ZM22.1543 26.0112V26.384H20.6702V26.0112H22.1543ZM21.1028 25.3251H21.5427V28.0545C21.5427 28.1787 21.5608 28.272 21.5968 28.3341C21.6341 28.395 21.6813 28.4361 21.7385 28.4572C21.7969 28.4771 21.8584 28.487 21.9231 28.487C21.9716 28.487 22.0113 28.4845 22.0424 28.4796C22.0734 28.4733 22.0983 28.4684 22.117 28.4646L22.2064 28.8599C22.1766 28.871 22.135 28.8822 22.0816 28.8934C22.0281 28.9059 21.9604 28.9121 21.8783 28.9121C21.754 28.9121 21.6322 28.8854 21.5129 28.8319C21.3949 28.7785 21.2967 28.6971 21.2184 28.5877C21.1413 28.4783 21.1028 28.3403 21.1028 28.1738V25.3251ZM23.986 28.9345C23.71 28.9345 23.472 28.8736 23.2719 28.7518C23.073 28.6287 22.9195 28.4572 22.8114 28.2372C22.7046 28.016 22.6511 27.7586 22.6511 27.4653C22.6511 27.172 22.7046 26.9135 22.8114 26.6897C22.9195 26.4648 23.07 26.2896 23.2626 26.164C23.4565 26.0373 23.6827 25.9739 23.9412 25.9739C24.0904 25.9739 24.2376 25.9988 24.3831 26.0485C24.5285 26.0982 24.6609 26.1789 24.7801 26.2908C24.8995 26.4014 24.9946 26.5481 25.0654 26.7308C25.1363 26.9135 25.1717 27.1384 25.1717 27.4057V27.5921H22.9643V27.2118H24.7242C24.7242 27.0502 24.6919 26.906 24.6273 26.7793C24.5639 26.6525 24.4732 26.5525 24.3551 26.4791C24.2383 26.4058 24.1003 26.3691 23.9412 26.3691C23.7659 26.3691 23.6143 26.4126 23.4863 26.4996C23.3596 26.5854 23.2619 26.6973 23.1936 26.8352C23.1253 26.9732 23.091 27.121 23.091 27.2789V27.5325C23.091 27.7488 23.1284 27.9321 23.203 28.0825C23.2787 28.2316 23.3838 28.3453 23.518 28.4236C23.6523 28.5006 23.8082 28.5392 23.986 28.5392C24.1016 28.5392 24.206 28.523 24.2992 28.4908C24.3937 28.4572 24.475 28.4075 24.5434 28.3416C24.6118 28.2745 24.6646 28.1912 24.7018 28.0918L25.1269 28.2111C25.0822 28.3552 25.007 28.482 24.9013 28.5914C24.7957 28.6995 24.6652 28.7841 24.5099 28.845C24.3545 28.9046 24.1799 28.9345 23.986 28.9345Z" fill="white"/>
</g>
<defs>
<linearGradient id="paint0_linear_494_631" x1="35" y1="0" x2="-6.5625" y2="39.8125" gradientUnits="userSpaceOnUse">
<stop stop-color="#969277"/>
<stop offset="1" stop-color="#DBD4CB"/>
</linearGradient>
<clipPath id="clip0_494_631">
<rect width="35" height="35" fill="white"/>
</clipPath>
</defs>
</svg>
