<svg width="35" height="35" viewBox="0 0 35 35" fill="none" xmlns="http://www.w3.org/2000/svg">
<g clip-path="url(#clip0_494_647)">
<mask id="mask0_494_647" style="mask-type:luminance" maskUnits="userSpaceOnUse" x="0" y="0" width="35" height="35">
<path d="M30.2402 0.561523H5.01265C2.55247 0.561523 0.558105 2.55589 0.558105 5.01607V30.2436C0.558105 32.7038 2.55247 34.6982 5.01265 34.6982H30.2402C32.7004 34.6982 34.6948 32.7038 34.6948 30.2436V5.01607C34.6948 2.55589 32.7004 0.561523 30.2402 0.561523Z" fill="white"/>
</mask>
<g mask="url(#mask0_494_647)">
<path d="M30.2402 0.561523H5.01265C2.55247 0.561523 0.558105 2.55589 0.558105 5.01607V30.2436C0.558105 32.7038 2.55247 34.6982 5.01265 34.6982H30.2402C32.7004 34.6982 34.6948 32.7038 34.6948 30.2436V5.01607C34.6948 2.55589 32.7004 0.561523 30.2402 0.561523Z" fill="white"/>
<path fill-rule="evenodd" clip-rule="evenodd" d="M18.0767 17.5503C18.0767 19.7823 19.2992 21.5307 21.0631 22.4085C22.4848 23.116 24.3301 23.14 25.7546 22.4202C26.2371 22.1764 26.5197 21.9888 26.9087 21.6589C27.0347 21.5521 27.1304 21.4513 27.2436 21.3387C27.9988 20.5878 28.7653 19.2748 28.7653 17.7266V17.4999C28.7653 14.7243 26.3416 12.2646 23.5545 12.2646C22.311 12.2646 21.2921 12.5601 20.332 13.2459C19.5493 13.8049 18.9641 14.509 18.5536 15.397C18.2741 16.0012 18.0767 16.7847 18.0767 17.5503Z" fill="#97CF26"/>
<path fill-rule="evenodd" clip-rule="evenodd" d="M4.45459 32.4913L6.07546 32.492L6.65323 30.9303L9.4125 30.9277C9.47512 30.9277 9.48874 31.0343 9.51171 31.0955C9.53888 31.1679 9.56058 31.2318 9.58597 31.2997C9.63574 31.4326 9.68461 31.5671 9.73367 31.6993L9.95716 32.3047C9.99401 32.4041 9.99503 32.4944 10.077 32.4946C10.4547 32.4955 11.3252 32.5089 11.6512 32.492L8.64364 24.291L7.4672 24.2925C7.39968 24.4063 5.06153 30.8365 4.82518 31.4664C4.7689 31.6164 4.46993 32.4044 4.45459 32.4913Z" fill="black"/>
<path fill-rule="evenodd" clip-rule="evenodd" d="M28.058 26.7614C27.3884 26.8138 26.7064 27.0916 26.2395 27.5304C26.0459 27.7123 25.8872 27.8888 25.7326 28.1303C24.932 29.3812 25.2319 30.9621 26.2752 31.8778C26.7698 32.3119 27.5765 32.6827 28.5065 32.6135C30.0644 32.4976 31.3989 31.1763 31.2679 29.4556C31.1504 27.9119 29.7523 26.6288 28.058 26.7614Z" fill="black"/>
<path fill-rule="evenodd" clip-rule="evenodd" d="M8.98999 7.24361V7.91167C9.08462 8.1678 9.01124 9.09581 9.88504 10.235C10.0595 10.4625 10.2106 10.6087 10.4016 10.802C11.1519 11.5613 12.4087 12.0083 13.5507 11.9652C15.8847 11.8772 17.774 9.96865 17.7775 7.57879C17.7811 5.21093 15.8737 3.24101 13.5507 3.18312C11.3471 3.12822 9.46014 4.6096 9.0612 6.76596C9.03816 6.8903 9.02187 7.15936 8.98999 7.24361Z" fill="#00AAFE"/>
<path fill-rule="evenodd" clip-rule="evenodd" d="M21.4136 26.8904L20.2052 26.893L20.2046 28.1283L21.409 28.1323C21.4252 28.2414 21.4139 29.9746 21.4139 30.1332C21.4139 30.815 21.4157 31.333 21.7475 31.8251C21.9981 32.1968 22.4002 32.4601 23.0187 32.5641C23.7052 32.6794 24.1732 32.5805 24.7695 32.3905L24.59 31.1814C24.5074 31.1846 24.3826 31.2214 24.292 31.2347C23.9028 31.2919 23.4059 31.2735 23.1419 30.9922C22.9537 30.7919 22.9433 30.5274 22.9433 30.1775C22.9433 30.0106 22.9329 28.2496 22.9473 28.1355L24.7725 28.1318V26.8952L22.9487 26.8925L22.9431 25.3503L21.4139 25.3496L21.4136 26.8904Z" fill="black"/>
<path fill-rule="evenodd" clip-rule="evenodd" d="M13.2206 32.4947H15.1564C15.2288 32.2699 15.3253 32.0356 15.4101 31.8031C15.4974 31.5633 15.5807 31.3354 15.6682 31.1007C15.7637 30.8444 17.2019 26.965 17.2049 26.8911L15.6902 26.8906C15.6432 26.9618 14.5016 30.1049 14.3823 30.4343C14.3552 30.5091 14.2397 30.8689 14.1857 30.9284C14.1833 30.931 14.179 30.935 14.1754 30.9378C14.1374 30.7787 13.1805 28.2317 13.0635 27.8988C13.0131 27.7552 12.7303 26.9637 12.6875 26.8906H11.1751C11.1715 26.9649 13.1345 32.2514 13.2206 32.4947Z" fill="black"/>
<path fill-rule="evenodd" clip-rule="evenodd" d="M23.1301 4.14439C22.0727 4.2555 21.3106 4.74662 20.8425 5.29253C20.319 5.90302 19.8977 6.75023 19.9914 7.87264C20.1402 9.6551 21.7195 11.1721 23.7321 11.0001C25.5093 10.8482 27.0305 9.26253 26.8497 7.25957C26.6892 5.48183 25.0851 3.939 23.1301 4.14439Z" fill="#FF6163"/>
<path fill-rule="evenodd" clip-rule="evenodd" d="M17.8481 32.489L19.378 32.4948L19.3809 26.8906L17.8527 26.8908L17.8481 32.489Z" fill="black"/>
<path fill-rule="evenodd" clip-rule="evenodd" d="M28.1113 28.2089C27.2559 28.308 26.646 29.0511 26.7455 29.8737C26.8388 30.6453 27.5508 31.3059 28.4562 31.2007C29.2229 31.1117 29.9114 30.4268 29.8065 29.5402C29.7144 28.7621 29.001 28.1059 28.1113 28.2089Z" fill="white"/>
<path fill-rule="evenodd" clip-rule="evenodd" d="M13.0438 15.1495C11.7789 15.3312 10.7062 16.4718 10.917 17.9723C11.0916 19.2159 12.2611 20.2881 13.7364 20.0783C14.9825 19.901 16.0467 18.7502 15.8504 17.2759C15.6846 16.031 14.5191 14.9376 13.0438 15.1495Z" fill="#A169F7"/>
<path fill-rule="evenodd" clip-rule="evenodd" d="M18.4775 24.2771C17.9783 24.3521 17.5483 24.8011 17.6408 25.4052C17.7159 25.8962 18.1775 26.3201 18.7695 26.2277C19.2573 26.1515 19.6792 25.6901 19.5923 25.109C19.5191 24.6203 19.0646 24.189 18.4775 24.2771Z" fill="black"/>
<path fill-rule="evenodd" clip-rule="evenodd" d="M7.11694 29.6977H8.98932L8.05902 27.1445C8.03623 27.1679 7.13247 29.5906 7.11694 29.6977Z" fill="white"/>
</g>
</g>
<defs>
<clipPath id="clip0_494_647">
<rect width="35" height="35" fill="white"/>
</clipPath>
</defs>
</svg>
