<svg width="35" height="38" viewBox="0 0 35 38" fill="none" xmlns="http://www.w3.org/2000/svg">
<mask id="mask0_494_667" style="mask-type:luminance" maskUnits="userSpaceOnUse" x="0" y="0" width="35" height="38">
<path d="M28.875 0H6.125C2.74226 0 0 2.96573 0 6.62415V31.2281C0 34.8866 2.74226 37.8523 6.125 37.8523H28.875C32.2577 37.8523 35 34.8866 35 31.2281V6.62415C35 2.96573 32.2577 0 28.875 0Z" fill="white"/>
</mask>
<g mask="url(#mask0_494_667)">
<path d="M28.875 0H6.125C2.74226 0 0 2.96573 0 6.62415V31.2281C0 34.8866 2.74226 37.8523 6.125 37.8523H28.875C32.2577 37.8523 35 34.8866 35 31.2281V6.62415C35 2.96573 32.2577 0 28.875 0Z" fill="url(#paint0_linear_494_667)"/>
<mask id="mask1_494_667" style="mask-type:luminance" maskUnits="userSpaceOnUse" x="-2" y="-6" width="37" height="44">
<path d="M35 -5.67773H-1.75V37.8524H35V-5.67773Z" fill="white"/>
</mask>
<g mask="url(#mask1_494_667)">
<path fill-rule="evenodd" clip-rule="evenodd" d="M-7 43.111L19.7547 42.899L17.8258 21.4081C17.2645 21.1094 17.2731 21.2194 16.6222 20.7424C14.9384 19.5083 14.4186 17.1201 15.5823 15.0034C16.2977 13.7022 17.2923 12.8334 18.5739 12.1662C20.3738 11.2293 22.7148 11.0936 24.5408 12.0752C26.078 12.9016 27.4155 14.9377 26.4142 17.5626C26.5783 17.6062 33.4148 23.0286 33.7676 23.3002C35.9009 24.9423 38.0511 26.6957 40.1913 28.3541C40.4855 28.582 40.8161 28.8755 41.124 29.0747V-4.73145H-7V43.111Z" fill="#147EFF"/>
<path fill-rule="evenodd" clip-rule="evenodd" d="M17.8281 21.4119L19.7571 42.7237L41.1264 42.6025V29.0785C40.8185 28.8793 40.4878 28.5858 40.1936 28.3578C38.0535 26.6995 35.9033 24.9461 33.7699 23.304C33.4171 23.0324 26.5807 17.61 26.4165 17.5664C25.4487 20.0226 22.9245 21.5374 20.5972 21.7552C19.3755 21.8696 18.922 21.7172 17.8281 21.4119Z" fill="#FE3267"/>
<path fill-rule="evenodd" clip-rule="evenodd" d="M17.8254 21.4098C18.9193 21.7151 19.3728 21.8675 20.5945 21.7531C22.9218 21.5353 25.446 20.0205 26.4138 17.5643C27.4153 14.9393 26.0776 12.9032 24.5405 12.0768C22.7145 11.0952 20.3735 11.2309 18.5736 12.1679C17.2919 12.835 16.2975 13.7038 15.582 15.0051C14.4183 17.1218 14.9381 19.51 16.6219 20.744C17.2728 21.2211 17.2642 21.111 17.8254 21.4098Z" fill="#FEFEFE"/>
<path fill-rule="evenodd" clip-rule="evenodd" d="M1.5194 16.9907C-0.760903 17.1507 -2.64708 19.4423 -2.50654 22.341C-2.37482 25.0572 -0.430231 27.2581 2.01599 27.1051C4.29003 26.9628 6.17807 24.6221 6.03036 21.7422C5.89241 19.0522 3.95958 16.8194 1.5194 16.9907Z" fill="#FEFEFE"/>
<path fill-rule="evenodd" clip-rule="evenodd" d="M33.8035 13.1865C33.6141 13.1143 33.4188 12.9853 33.237 12.8887L29.3153 10.7326C28.9423 10.5231 28.5664 10.3274 28.1943 10.1171C27.9664 9.98849 27.1936 9.43012 27.1609 10.0608C27.1535 10.2029 28.3636 16.047 28.423 16.3281C28.5315 16.8409 28.634 17.3674 28.7388 17.889C28.8034 18.2098 28.8495 18.36 28.9835 18.5752C29.074 18.7205 29.277 18.8829 29.4858 18.9512C30.0015 19.1198 30.4227 18.7839 30.6081 18.4278C30.8714 17.9221 30.6985 17.4162 30.5904 16.8669C30.41 15.9497 30.0807 14.5389 29.9502 13.7033C30.1992 13.7883 31.7975 14.7153 32.2007 14.9264C33.2885 15.496 34.4228 16.1595 35.5247 16.7542C35.7838 16.894 36.5976 17.4962 36.5918 16.7954C36.5903 16.613 35.1491 9.64536 35.0099 8.97649C34.7008 7.49079 33.5097 7.74396 33.1521 8.45376C32.8776 8.99858 33.0526 9.4516 33.1655 10.0274C33.2683 10.5512 33.3804 11.0675 33.4842 11.5924C33.5854 12.1037 33.7309 12.6765 33.8035 13.1865Z" fill="#FEFEFE"/>
<path fill-rule="evenodd" clip-rule="evenodd" d="M10.3626 17.0529C10.3263 17.2267 10.1909 17.5486 10.1221 17.7302C10.0376 17.9533 9.9505 18.1857 9.87297 18.4069C9.40844 19.7319 8.8571 21.114 8.37644 22.4638L7.62864 24.4931C7.54751 24.711 7.38408 25.0023 7.57409 25.2113C7.74259 25.3968 8.01351 25.2447 8.216 25.1842L14.1827 23.4818C14.6963 23.3388 14.9901 23.1735 15.1442 22.6415C15.3192 22.0373 15.0429 21.5098 14.7689 21.288C14.3128 20.9189 13.9385 21.1164 13.427 21.26C12.7928 21.4382 11.2595 21.9176 10.7446 22.0184C10.8405 21.6336 11.0777 21.0913 11.216 20.7096L13.3346 14.9298C13.4138 14.7173 13.5132 14.4885 13.5782 14.2757C13.6644 13.9929 13.5111 13.7547 13.2705 13.7825C13.1183 13.8001 12.7921 13.9156 12.6297 13.9603C12.2023 14.0778 11.7774 14.2116 11.3504 14.329C10.5126 14.5591 9.681 14.815 8.83969 15.0462C8.42252 15.1608 7.99824 15.2791 7.58301 15.4054C7.07221 15.5609 6.78929 15.6117 6.55783 16.0673C6.25166 16.6699 6.4443 17.5625 7.14812 17.8117C7.40472 17.9025 7.58913 17.8365 7.83323 17.7684C8.30722 17.6362 10.0538 17.1063 10.3626 17.0529Z" fill="#FEFEFE"/>
<path fill-rule="evenodd" clip-rule="evenodd" d="M21.1945 13.788C18.1186 14.0977 15.5305 17.3904 17.8607 18.8513C19.3922 19.8114 21.3939 19.4542 22.9028 18.5171C24.3166 17.639 25.7276 15.4996 23.8526 14.313C23.0876 13.8287 22.1606 13.6908 21.1945 13.788Z" fill="#FE3267"/>
<path fill-rule="evenodd" clip-rule="evenodd" d="M1.48425 19.3729C0.31599 19.5608 -0.675591 20.7859 -0.496892 22.3984C-0.345201 23.7672 0.712136 24.9307 2.0551 24.7305C3.20347 24.5593 4.20067 23.2891 4.02426 21.7087C3.87305 20.3545 2.82382 19.1574 1.48425 19.3729Z" fill="#147EFF"/>
</g>
</g>
<defs>
<linearGradient id="paint0_linear_494_667" x1="35" y1="0" x2="-9.6619" y2="39.5577" gradientUnits="userSpaceOnUse">
<stop stop-color="#969277"/>
<stop offset="1" stop-color="#DBD4CB"/>
</linearGradient>
</defs>
</svg>
