<svg width="35" height="38" viewBox="0 0 35 38" fill="none" xmlns="http://www.w3.org/2000/svg">
<path d="M29.9933 0H5.00675C2.2416 0 0 2.42428 0 5.41477V32.3595C0 35.35 2.2416 37.7743 5.00675 37.7743H29.9933C32.7584 37.7743 35 35.35 35 32.3595V5.41477C35 2.42428 32.7584 0 29.9933 0Z" fill="url(#paint0_linear_494_642)"/>
<path fill-rule="evenodd" clip-rule="evenodd" d="M7.67014 23.0368L7.94428 24.0485C8.39324 24.1031 9.00897 24.0623 9.46712 24.0638C10.5429 24.0672 10.059 24.1682 10.4007 23.442C10.5377 22.6911 12.6756 14.854 12.7867 14.7346L15.2874 24.0634L17.5587 24.05L20.9181 11.1582L18.8794 11.1859C18.7413 11.4913 17.7883 15.4873 17.621 16.1716C17.4128 17.0233 17.1993 17.8404 16.9915 18.6989L16.4061 21.0099C16.3567 21.106 16.38 21.0633 16.3275 21.1227L13.6504 11.156L13.1277 11.1533L11.8715 11.1549C11.6654 11.5925 11.3557 13.0158 11.1914 13.613L9.84041 18.6328C9.73812 19.0182 9.29169 20.9606 9.11849 21.1067C8.94452 20.7527 6.79955 11.5223 6.60099 11.1587L4.61316 11.1565C4.57339 11.475 5.93674 16.3621 6.11546 17.0691C6.62023 19.0662 7.23271 21.0679 7.67014 23.0368Z" fill="#FBFAFB"/>
<path fill-rule="evenodd" clip-rule="evenodd" d="M30.4436 19.8884C30.3829 19.2929 30.1757 18.7759 29.8776 18.3358C29.4616 17.7216 29.014 17.5824 28.8602 17.3477C28.9965 17.1826 29.2059 17.0199 29.3622 16.8089C30.4813 15.2983 30.1298 12.9776 28.6085 11.8544C27.5725 11.0895 26.8913 11.1552 25.5028 11.1552C24.8637 11.1552 24.2246 11.1563 23.5855 11.1564C23.3253 11.1564 21.9843 11.0537 21.7882 11.2523L21.7727 24.0576C22.9853 24.1144 27.012 24.1852 27.927 23.9184C29.3654 23.4989 30.7275 22.0371 30.4436 19.8884ZM23.7377 16.5303C24.5438 16.5724 25.8891 16.5969 26.6665 16.5286C27.4855 16.4567 28.0565 15.7219 28.054 14.8341C28.0515 13.9282 27.468 13.2549 26.7077 13.1582C26.0116 13.0696 24.5062 13.1136 23.7673 13.1485L23.7377 16.5303ZM23.7814 22.038C24.1275 22.1344 26.4363 22.0992 26.9574 22.069C27.8359 22.0182 28.4978 21.2746 28.5116 20.3008C28.5257 19.3006 27.8846 18.538 27.0153 18.4614C26.181 18.3879 24.5897 18.4073 23.7405 18.4624C23.7265 19.1334 23.6372 21.6069 23.7814 22.038Z" fill="#FBFAFB"/>
<defs>
<linearGradient id="paint0_linear_494_642" x1="2.02408" y1="10.0697" x2="33.9828" y2="25.6375" gradientUnits="userSpaceOnUse">
<stop stop-color="#B6069D"/>
<stop offset="0.309804" stop-color="#CE0E8E"/>
<stop offset="1" stop-color="#E6167E"/>
</linearGradient>
</defs>
</svg>
