<svg width="35" height="38" viewBox="0 0 35 38" fill="none" xmlns="http://www.w3.org/2000/svg">
<path d="M29.9999 0H5.04691C2.28547 0 0.046875 2.42103 0.046875 5.40751V32.3161C0.046875 35.3026 2.28547 37.7236 5.04691 37.7236H29.9999C32.7614 37.7236 35 35.3026 35 32.3161V5.40751C35 2.42103 32.7614 0 29.9999 0Z" fill="url(#paint0_linear_494_637)"/>
<path fill-rule="evenodd" clip-rule="evenodd" d="M0.0469199 21.4886C-0.0261134 25.3779 -0.0126585 28.8708 0.0787137 32.7592C0.263992 32.6248 6.32979 24.2166 7.08634 23.1427C7.36753 22.7436 7.7714 22.2154 8.03614 21.7675C8.18211 22.055 5.90974 30.6581 5.95863 31.1985L11.3913 33.5455C11.7973 33.7245 12.9361 34.2766 13.2818 34.3232C13.4465 34.1718 15.5322 30.7107 15.8558 30.2014C17.9693 26.8751 20.1037 23.2624 22.2202 19.8746C22.5854 19.29 23.1716 18.4513 23.4783 17.8212C23.5871 18.0114 23.3348 18.7092 23.2847 18.9397C22.9669 20.403 21.3917 26.8403 21.4239 27.2288C22.3013 27.7648 23.4087 28.3039 24.3228 28.798C24.7511 29.0296 26.9598 30.3046 27.3204 30.3572L35 22.0173C35 21.2844 35 13.4811 35 12.2032C34.2637 13.0344 33.5047 13.7437 32.7259 14.4751C32.2841 14.8975 30.4961 16.6691 30.2256 16.7766L30.6398 14.7621L32.396 6.49268L25.0697 3.36133C24.8347 3.55044 17.7529 14.4005 17.7161 14.4915C17.5011 14.6983 16.2156 16.7308 15.9078 17.1895C15.6523 17.5705 14.3039 19.7113 14.0589 19.8729C14.1696 18.7471 15.5546 12.3387 15.4386 12.0919C15.2969 11.9307 9.76083 8.96179 9.55113 8.91899C9.44087 9.15694 9.15182 9.4875 8.96191 9.7435L3.58544 16.8048C3.25953 17.2313 0.262979 21.3875 0.0469199 21.4886Z" fill="#FFD522"/>
<defs>
<linearGradient id="paint0_linear_494_637" x1="2.06824" y1="10.0562" x2="33.9842" y2="25.6031" gradientUnits="userSpaceOnUse">
<stop stop-color="#31312F"/>
<stop offset="0.309804" stop-color="#282628"/>
<stop offset="1" stop-color="#1F1B20"/>
</linearGradient>
</defs>
</svg>
